<svg xmlns="http://www.w3.org/2000/svg" width="32" height="32" viewBox="-15 -5 305 305" preserveAspectRatio="xMidYMid meet">
<g transform="translate(-335.002424,533.000000) scale(0.100000,-0.100000)" fill="#1565a0" stroke="none">
<path d="M3350 3840 l1 -1491 772 4 c840 3 801 1 992 63 117 37 307 133 410 205 301 214 522 564 591 936 18 99 30 358 20 427 l-7 46 -715 0 -714 0 0 -195 0 -195 235 3 c129 1 235 -2 235 -7 0 -4 -16 -39 -36 -76 -71 -135 -218 -249 -364 -282 -32 -7 -129 -12 -235 -13 l-180 0 0 573 0 573 185 1 c112 0 205 -4 235 -11 78 -19 174 -71 236 -128 l57 -53 196 0 c108 0 196 4 196 8 0 25 -114 186 -174 247 -82 82 -136 121 -246 176 -158 79 -181 82 -657 87 l-423 4 0 -902 0 -902 418 4 c392 4 422 6 497 26 207 57 392 186 505 351 52 78 105 189 123 260 7 29 20 57 28 61 23 13 199 -1 199 -15 0 -31 -55 -197 -89 -271 -131 -278 -386 -496 -676 -578 -148 -42 -219 -46 -731 -46 l-484 0 0 1111 0 1110 533 -4 c587 -4 591 -5 769 -71 267 -100 499 -326 606 -588 l27 -68 203 0 c167 0 202 2 202 14 0 33 -64 205 -110 298 -179 356 -463 599 -847 728 -208 69 -218 70 -1045 70 l-738 0 0 -1490z"/>
</g>
</svg>
