<svg xmlns="http://www.w3.org/2000/svg" width="737.85" height="298.08" viewBox="0 0 737.850919 298.081008" preserveAspectRatio="xMidYMid meet">
<g transform="translate(-335.002424,533.000000) scale(0.100000,-0.100000)" stroke="none">
<!-- DG monogram -->
<g fill="#1565a0">
<path d="M3350 3840 l1 -1491 772 4 c840 3 801 1 992 63 117 37 307 133 410 205 301 214 522 564 591 936 18 99 30 358 20 427 l-7 46 -715 0 -714 0 0 -195 0 -195 235 3 c129 1 235 -2 235 -7 0 -4 -16 -39 -36 -76 -71 -135 -218 -249 -364 -282 -32 -7 -129 -12 -235 -13 l-180 0 0 573 0 573 185 1 c112 0 205 -4 235 -11 78 -19 174 -71 236 -128 l57 -53 196 0 c108 0 196 4 196 8 0 25 -114 186 -174 247 -82 82 -136 121 -246 176 -158 79 -181 82 -657 87 l-423 4 0 -902 0 -902 418 4 c392 4 422 6 497 26 207 57 392 186 505 351 52 78 105 189 123 260 7 29 20 57 28 61 23 13 199 -1 199 -15 0 -31 -55 -197 -89 -271 -131 -278 -386 -496 -676 -578 -148 -42 -219 -46 -731 -46 l-484 0 0 1111 0 1110 533 -4 c587 -4 591 -5 769 -71 267 -100 499 -326 606 -588 l27 -68 203 0 c167 0 202 2 202 14 0 33 -64 205 -110 298 -179 356 -463 599 -847 728 -208 69 -218 70 -1045 70 l-738 0 0 -1490z"/>
</g>
<!-- DATA GATE -->
<g fill="#0c2340">
<path d="M6650 4516 l0 -496 280 0 c166 0 300 4 332 11 84 18 188 71 250 128 149 137 189 381 93 576 -58 120 -149 196 -290 242 -77 25 -90 26 -372 31 l-293 4 0 -496z m606 267 c67 -35 101 -70 130 -131 22 -47 27 -71 27 -137 1 -132 -57 -228 -167 -276 -44 -20 -72 -24 -203 -27 l-153 -4 0 303 0 304 162 -5 c142 -5 168 -9 204 -27z"/>
<path d="M8006 4722 c-181 -400 -275 -610 -297 -659 l-18 -43 122 0 122 0 40 98 40 97 239 0 239 0 41 -95 42 -95 127 -5 c70 -3 127 -3 127 0 0 3 -35 82 -79 175 -43 94 -142 310 -221 480 -79 171 -147 316 -153 323 -6 8 -45 12 -126 12 l-116 0 -129 -288z m328 -132 l75 -175 -52 -7 c-74 -9 -245 -9 -251 0 -4 7 146 364 151 359 1 -2 36 -81 77 -177z"/>
<path d="M8770 4910 l0 -100 160 0 160 0 0 -395 0 -395 120 0 120 0 0 395 0 394 158 3 157 3 0 95 0 95 -437 3 -438 2 0 -100z"/>
<path d="M10021 4988 c-5 -13 -66 -149 -136 -303 -178 -391 -295 -654 -295 -660 0 -3 53 -5 118 -5 l119 0 43 100 43 100 237 0 237 0 44 -100 43 -100 128 0 127 0 -73 158 c-70 149 -257 554 -344 745 l-41 87 -121 0 c-116 0 -121 -1 -129 -22z m209 -398 c40 -94 69 -174 65 -178 -11 -12 -295 -13 -295 -1 0 16 144 349 151 349 3 0 38 -77 79 -170z"/>
<path d="M7043 3679 c-76 -13 -157 -46 -226 -93 -200 -136 -267 -424 -150 -647 64 -123 187 -219 333 -260 60 -17 261 -16 330 0 69 17 173 63 217 97 l33 25 0 195 0 194 -115 0 -115 0 0 -140 0 -139 -28 -15 c-78 -40 -201 -40 -300 -1 -62 25 -138 113 -158 182 -35 121 -1 260 82 333 65 57 117 74 219 74 78 0 98 -3 152 -28 34 -15 72 -39 84 -52 12 -13 27 -24 34 -24 6 0 42 32 80 71 l70 70 -42 38 c-114 103 -315 151 -500 120z"/>
<path d="M8030 3488 c-46 -101 -104 -230 -131 -288 -26 -58 -90 -198 -142 -312 l-95 -208 123 0 123 0 22 58 c13 31 34 78 47 105 l24 47 235 -2 235 -3 44 -100 43 -100 126 -3 c69 -1 126 -1 126 2 0 2 -40 89 -88 193 -49 103 -151 324 -227 491 l-140 302 -121 0 -121 0 -83 -182z m286 -238 c36 -85 68 -161 71 -167 4 -10 -30 -13 -152 -13 -86 0 -155 4 -153 9 2 5 37 88 78 186 55 131 77 172 82 158 4 -10 37 -88 74 -173z"/>
<path d="M8760 3575 l0 -95 160 0 160 0 0 -400 0 -400 120 0 120 0 0 400 0 400 160 0 160 0 0 95 0 95 -440 0 -440 0 0 -95z"/>
<path d="M9780 3175 l0 -495 400 0 400 0 0 95 0 95 -280 0 -280 0 0 110 0 110 235 0 235 0 0 95 0 95 -235 0 -235 0 0 100 0 100 265 0 265 0 0 95 0 95 -385 0 -385 0 0 -495z"/>
</g>
</g>
</svg>
